<svg width="34" height="47" viewBox="0 0 34 47" fill="none" xmlns="http://www.w3.org/2000/svg">
<path d="M2 2H25.375C27.0658 2 28.6873 2.67165 29.8828 3.86719C31.0784 5.06274 31.75 6.68424 31.75 8.375V38.125C31.75 38.6886 31.5261 39.2291 31.1276 39.6276C30.7291 40.0261 30.1886 40.25 29.625 40.25H23.25" stroke="#FFD233" stroke-width="4" stroke-linecap="round" stroke-linejoin="round"/>
<path d="M16.875 23.25V27.5M2 2L18.1245 5.22575C19.5695 5.51457 20.8698 6.29506 21.8043 7.43446C22.7387 8.57386 23.2496 10.0018 23.25 11.4754V41.9075C23.2498 42.2218 23.1799 42.5321 23.0454 42.8161C22.9108 43.1001 22.7149 43.3507 22.4718 43.5499C22.2287 43.7491 21.9445 43.8919 21.6396 43.968C21.3347 44.0441 21.0167 44.0516 20.7085 43.99L5.417 40.9343C4.45319 40.7416 3.58595 40.2209 2.96292 39.4607C2.3399 38.7005 1.99961 37.7479 2 36.765V2Z" stroke="#FFD233" stroke-width="4" stroke-linecap="round" stroke-linejoin="round"/>
</svg>
